<svg width="25" height="24" viewBox="0 0 25 24" fill="none" xmlns="http://www.w3.org/2000/svg">
<path fill-rule="evenodd" clip-rule="evenodd" d="M22.1488 19.8751C20.7209 17.4067 18.5206 15.6367 15.9528 14.7976C18.5636 13.2434 19.8142 10.1365 19.0082 7.20701C18.2022 4.27752 15.5383 2.24756 12.5 2.24756C9.46168 2.24756 6.7978 4.27752 5.99183 7.20701C5.18586 10.1365 6.43646 13.2434 9.0472 14.7976C6.47939 15.6357 4.27907 17.4057 2.85126 19.8751C2.70871 20.1075 2.70354 20.399 2.83774 20.6364C2.97194 20.8737 3.22439 21.0195 3.49703 21.0172C3.76968 21.0148 4.01958 20.8647 4.1497 20.6251C5.91595 17.5726 9.03782 15.7501 12.5 15.7501C15.9622 15.7501 19.0841 17.5726 20.8503 20.6251C20.9804 20.8647 21.2303 21.0148 21.503 21.0172C21.7756 21.0195 22.0281 20.8737 22.1623 20.6364C22.2965 20.399 22.2913 20.1075 22.1488 19.8751ZM7.25001 9.00011C7.25001 6.10061 9.60051 3.75011 12.5 3.75011C15.3995 3.75011 17.75 6.10061 17.75 9.00011C17.75 11.8996 15.3995 14.2501 12.5 14.2501C9.6018 14.247 7.25311 11.8983 7.25001 9.00011Z" fill="#121A0F"/>
</svg>
